<svg xmlns="http://www.w3.org/2000/svg" xmlns:xlink="http://www.w3.org/1999/xlink" width="1920" zoomAndPan="magnify" viewBox="0 0 1440 809.999993" height="1080" preserveAspectRatio="xMidYMid meet" version="1.0"><defs><clipPath id="7f989435bf"><path d="M 160.085938 339.921875 L 250.085938 339.921875 L 250.085938 405.171875 L 160.085938 405.171875 Z M 160.085938 339.921875 " clip-rule="nonzero"/></clipPath><clipPath id="392ae65903"><path d="M 160.085938 432.609375 L 250.085938 432.609375 L 250.085938 497.859375 L 160.085938 497.859375 Z M 160.085938 432.609375 " clip-rule="nonzero"/></clipPath><clipPath id="7dfeb6184a"><path d="M 0.0859375 0.609375 L 90.085938 0.609375 L 90.085938 65.8125 L 0.0859375 65.8125 Z M 0.0859375 0.609375 " clip-rule="nonzero"/></clipPath><clipPath id="f2a0abf26f"><rect x="0" width="91" y="0" height="66"/></clipPath><clipPath id="bc97101fdb"><path d="M 113.015625 349.730469 L 189.515625 349.730469 L 189.515625 405.230469 L 113.015625 405.230469 Z M 113.015625 349.730469 " clip-rule="nonzero"/></clipPath><clipPath id="0be2ecf632"><path d="M 79.710938 367.433594 L 132 367.433594 L 132 404.933594 L 79.710938 404.933594 Z M 79.710938 367.433594 " clip-rule="nonzero"/></clipPath><clipPath id="ab5e7f3960"><path d="M 79.710938 432.609375 L 132 432.609375 L 132 470.109375 L 79.710938 470.109375 Z M 79.710938 432.609375 " clip-rule="nonzero"/></clipPath><clipPath id="c6bc32ac50"><path d="M 0.710938 0.609375 L 53 0.609375 L 53 38.109375 L 0.710938 38.109375 Z M 0.710938 0.609375 " clip-rule="nonzero"/></clipPath><clipPath id="511a6cb74d"><rect x="0" width="53" y="0" height="39"/></clipPath><clipPath id="1d85757da0"><path d="M 113.015625 433.78125 L 189.515625 433.78125 L 189.515625 489.28125 L 113.015625 489.28125 Z M 113.015625 433.78125 " clip-rule="nonzero"/></clipPath><clipPath id="5d49bf76cf"><path d="M 0.0390625 0.78125 L 76.515625 0.78125 L 76.515625 56.09375 L 0.0390625 56.09375 Z M 0.0390625 0.78125 " clip-rule="nonzero"/></clipPath><clipPath id="a8abc79af4"><rect x="0" width="77" y="0" height="57"/></clipPath></defs><path stroke-linecap="butt" transform="matrix(0.75, -0.000000000000000093, 0.000000000000000093, 0.75, 65.021465, 409.829759)" fill="none" stroke-linejoin="miter" d="M -0.0025788 11.997821 L 1775.992302 11.997821 " stroke="#0058a3" stroke-width="24" stroke-opacity="1" stroke-miterlimit="4"/><g clip-path="url(#7f989435bf)"><path fill="#0058a3" d="M 179.769531 339.921875 L 169.972656 350.472656 L 160.179688 361.019531 L 169.972656 370.117188 L 207.855469 405.292969 L 169.972656 440.472656 L 160.175781 449.566406 L 179.769531 470.667969 L 250.171875 405.292969 Z M 179.769531 339.921875 " fill-opacity="1" fill-rule="nonzero"/></g><g clip-path="url(#392ae65903)"><g transform="matrix(1, 0, 0, 1, 160, 432)"><g clip-path="url(#f2a0abf26f)"><g clip-path="url(#7dfeb6184a)"><path fill="#0058a3" d="M 19.769531 65.8125 L 9.972656 55.265625 L 0.179688 44.714844 L 9.972656 35.617188 L 47.855469 0.441406 L 9.972656 -34.734375 L 0.175781 -43.832031 L 19.769531 -64.933594 L 90.171875 0.441406 Z M 19.769531 65.8125 " fill-opacity="1" fill-rule="nonzero"/></g></g></g></g><g clip-path="url(#bc97101fdb)"><path fill="#0058a3" d="M 129.707031 349.730469 L 113.089844 367.628906 L 121.398438 375.34375 L 153.53125 405.183594 L 121.398438 435.023438 L 113.085938 442.738281 L 129.707031 460.636719 L 189.429688 405.183594 Z M 129.707031 349.730469 " fill-opacity="1" fill-rule="nonzero"/></g><g clip-path="url(#0be2ecf632)"><path fill="#0058a3" d="M 91.085938 367.433594 L 85.425781 373.53125 L 79.761719 379.628906 L 85.425781 384.886719 L 107.324219 405.226562 L 85.425781 425.5625 L 79.761719 430.820312 L 91.089844 443.019531 L 131.789062 405.226562 Z M 91.085938 367.433594 " fill-opacity="1" fill-rule="nonzero"/></g><g clip-path="url(#ab5e7f3960)"><g transform="matrix(1, 0, 0, 1, 79, 432)"><g clip-path="url(#511a6cb74d)"><g clip-path="url(#c6bc32ac50)"><path fill="#0058a3" d="M 12.085938 38.308594 L 6.425781 32.210938 L 0.761719 26.113281 L 6.425781 20.855469 L 28.324219 0.515625 L 6.425781 -19.820312 L 0.761719 -25.078125 L 12.089844 -37.277344 L 52.789062 0.515625 Z M 12.085938 38.308594 " fill-opacity="1" fill-rule="nonzero"/></g></g></g></g><g clip-path="url(#1d85757da0)"><g transform="matrix(1, 0, 0, 1, 113, 433)"><g clip-path="url(#a8abc79af4)"><g clip-path="url(#5d49bf76cf)"><path fill="#0058a3" d="M 16.707031 56.09375 L 0.0898438 38.195312 L 8.398438 30.480469 L 40.53125 0.640625 L 8.398438 -29.195312 L 0.0859375 -36.914062 L 16.707031 -54.8125 L 76.429688 0.640625 Z M 16.707031 56.09375 " fill-opacity="1" fill-rule="nonzero"/></g></g></g></g></svg>