<svg xmlns="http://www.w3.org/2000/svg" xmlns:xlink="http://www.w3.org/1999/xlink" width="1920" zoomAndPan="magnify" viewBox="0 0 1440 809.999993" height="1080" preserveAspectRatio="xMidYMid meet" version="1.0"><defs><filter x="0%" y="0%" width="100%" height="100%" id="63cc233ce6"><feColorMatrix values="0 0 0 0 1 0 0 0 0 1 0 0 0 0 1 0 0 0 1 0" color-interpolation-filters="sRGB"/></filter><mask id="2d686e1d12"><g filter="url(#63cc233ce6)"><rect x="-144" width="1728" fill="#000000" y="-80.999999" height="971.999992" fill-opacity="0.14"/></g></mask><clipPath id="e9467567a9"><path d="M 0.679688 0.945312 L 449.480469 0.945312 L 449.480469 325.695312 L 0.679688 325.695312 Z M 0.679688 0.945312 " clip-rule="nonzero"/></clipPath><clipPath id="c7ccacbec4"><rect x="0" width="450" y="0" height="654"/></clipPath><mask id="e5f2ad155c"><g filter="url(#63cc233ce6)"><rect x="-144" width="1728" fill="#000000" y="-80.999999" height="971.999992" fill-opacity="0.14"/></g></mask><clipPath id="9f21cb8cda"><path d="M 0.199219 0.824219 L 380.839844 0.824219 L 380.839844 276.074219 L 0.199219 276.074219 Z M 0.199219 0.824219 " clip-rule="nonzero"/></clipPath><clipPath id="4fdf038c92"><rect x="0" width="381" y="0" height="555"/></clipPath><mask id="06290a106c"><g filter="url(#63cc233ce6)"><rect x="-144" width="1728" fill="#000000" y="-80.999999" height="971.999992" fill-opacity="0.14"/></g></mask><clipPath id="d8a83c7b46"><path d="M 0.121094 0.015625 L 259.5 0.015625 L 259.5 187.515625 L 0.121094 187.515625 Z M 0.121094 0.015625 " clip-rule="nonzero"/></clipPath><clipPath id="2add0f8a1f"><rect x="0" width="260" y="0" height="378"/></clipPath><mask id="356c260b02"><g filter="url(#63cc233ce6)"><rect x="-144" width="1728" fill="#000000" y="-80.999999" height="971.999992" fill-opacity="0.14"/></g></mask><clipPath id="daaa63e494"><path d="M 0.238281 324.296875 L 444.480469 324.296875 L 444.480469 646.046875 L 0.238281 646.046875 Z M 0.238281 324.296875 " clip-rule="nonzero"/></clipPath><clipPath id="813b37a912"><path d="M 0.238281 0.296875 L 444.480469 0.296875 L 444.480469 322.046875 L 0.238281 322.046875 Z M 0.238281 0.296875 " clip-rule="nonzero"/></clipPath><clipPath id="10452b787a"><rect x="0" width="445" y="0" height="323"/></clipPath><clipPath id="b1dd47a69a"><rect x="0" width="445" y="0" height="647"/></clipPath><mask id="3d87cd119d"><g filter="url(#63cc233ce6)"><rect x="-144" width="1728" fill="#000000" y="-80.999999" height="971.999992" fill-opacity="0.14"/></g></mask><clipPath id="db8722b4e5"><path d="M 0.28125 187.296875 L 257.320312 187.296875 L 257.320312 373.296875 L 0.28125 373.296875 Z M 0.28125 187.296875 " clip-rule="nonzero"/></clipPath><clipPath id="e213267f23"><path d="M 0.28125 0.296875 L 257.320312 0.296875 L 257.320312 186.296875 L 0.28125 186.296875 Z M 0.28125 0.296875 " clip-rule="nonzero"/></clipPath><clipPath id="02bea5a6e3"><rect x="0" width="258" y="0" height="187"/></clipPath><clipPath id="13593e1310"><rect x="0" width="258" y="0" height="374"/></clipPath><mask id="76c315e287"><g filter="url(#63cc233ce6)"><rect x="-144" width="1728" fill="#000000" y="-80.999999" height="971.999992" fill-opacity="0.14"/></g></mask><clipPath id="e30b09ca5b"><path d="M 0.921875 275.078125 L 377.71875 275.078125 L 377.71875 548.078125 L 0.921875 548.078125 Z M 0.921875 275.078125 " clip-rule="nonzero"/></clipPath><clipPath id="6af2fa841a"><path d="M 0.921875 0.078125 L 377.71875 0.078125 L 377.71875 273.007812 L 0.921875 273.007812 Z M 0.921875 0.078125 " clip-rule="nonzero"/></clipPath><clipPath id="e0b193fb7c"><rect x="0" width="378" y="0" height="274"/></clipPath><clipPath id="8153c679f3"><rect x="0" width="378" y="0" height="549"/></clipPath></defs><g mask="url(#2d686e1d12)"><g transform="matrix(1, 0, 0, 1, 481, 48)"><g clip-path="url(#c7ccacbec4)"><g clip-path="url(#e9467567a9)"><path fill="#0058a3" d="M 98.523438 0.945312 L 49.714844 53.511719 L 0.902344 106.078125 L 49.714844 151.402344 L 238.480469 326.683594 L 49.714844 501.964844 L 0.898438 547.292969 L 98.53125 652.425781 L 449.332031 326.683594 Z M 98.523438 0.945312 " fill-opacity="1" fill-rule="nonzero"/></g></g></g></g><g mask="url(#e5f2ad155c)"><g transform="matrix(1, 0, 0, 1, 247, 97)"><g clip-path="url(#4fdf038c92)"><g clip-path="url(#9f21cb8cda)"><path fill="#0058a3" d="M 83.101562 0.824219 L 41.695312 45.414062 L 0.292969 90.003906 L 41.695312 128.453125 L 201.820312 277.136719 L 41.695312 425.820312 L 0.285156 464.273438 L 83.105469 553.457031 L 380.683594 277.136719 Z M 83.101562 0.824219 " fill-opacity="1" fill-rule="nonzero"/></g></g></g></g><g mask="url(#06290a106c)"><g transform="matrix(1, 0, 0, 1, 81, 186)"><g clip-path="url(#2add0f8a1f)"><g clip-path="url(#d8a83c7b46)"><path fill="#0058a3" d="M 56.6875 0.015625 L 0.25 60.796875 L 28.46875 87 L 137.597656 188.335938 L 28.46875 289.671875 L 0.246094 315.875 L 56.691406 376.65625 L 259.5 188.335938 Z M 56.6875 0.015625 " fill-opacity="1" fill-rule="nonzero"/></g></g></g></g><g mask="url(#356c260b02)"><g transform="matrix(1, 0, 0, 1, 486, 115)"><g clip-path="url(#b1dd47a69a)"><g clip-path="url(#daaa63e494)"><g transform="matrix(1, 0, 0, 1, 0, 324)"><g clip-path="url(#10452b787a)"><g clip-path="url(#813b37a912)"><path fill="#0058a3" d="M 96.9375 322.046875 L 0.265625 217.9375 L 48.601562 173.054688 L 235.53125 -0.523438 L 48.601562 -174.097656 L 0.261719 -218.984375 L 96.941406 -323.09375 L 444.332031 -0.523438 Z M 96.9375 322.046875 " fill-opacity="1" fill-rule="nonzero"/></g></g></g></g></g></g></g><g mask="url(#3d87cd119d)"><g transform="matrix(1, 0, 0, 1, 89, 252)"><g clip-path="url(#13593e1310)"><g clip-path="url(#db8722b4e5)"><g transform="matrix(1, 0, 0, 1, 0, 187)"><g clip-path="url(#02bea5a6e3)"><g clip-path="url(#e213267f23)"><path fill="#0058a3" d="M 56.398438 186.308594 L 28.453125 156.214844 L 0.511719 126.117188 L 28.453125 100.171875 L 136.523438 -0.175781 L 28.453125 -100.523438 L 0.507812 -126.476562 L 56.402344 -186.664062 L 257.238281 -0.175781 Z M 56.398438 186.308594 " fill-opacity="1" fill-rule="nonzero"/></g></g></g></g></g></g></g><g mask="url(#76c315e287)"><g transform="matrix(1, 0, 0, 1, 253, 170)"><g clip-path="url(#8153c679f3)"><g clip-path="url(#e30b09ca5b)"><g transform="matrix(1, 0, 0, 1, 0, 275)"><g clip-path="url(#e0b193fb7c)"><g clip-path="url(#6af2fa841a)"><path fill="#0058a3" d="M 82.941406 273.007812 L 41.9375 228.847656 L 0.9375 184.691406 L 41.9375 146.621094 L 200.503906 -0.617188 L 41.9375 -147.855469 L 0.933594 -185.933594 L 82.945312 -274.246094 L 377.625 -0.617188 Z M 82.941406 273.007812 " fill-opacity="1" fill-rule="nonzero"/></g></g></g></g></g></g></g></svg>