<svg xmlns="http://www.w3.org/2000/svg" xmlns:xlink="http://www.w3.org/1999/xlink" width="1920" zoomAndPan="magnify" viewBox="60 270 1320 280" height="1080" preserveAspectRatio="xMidYMid meet" version="1.0"><defs><g/><clipPath id="f4490780ef"><rect x="0" width="1094" y="0" height="735"/></clipPath><clipPath id="7264395a4c"><path d="M 153 351.734375 L 236.226562 351.734375 L 236.226562 411.734375 L 153 411.734375 Z M 153 351.734375 " clip-rule="nonzero"/></clipPath><clipPath id="8125bf8677"><path d="M 152.976562 437.488281 L 236.226562 437.488281 L 236.226562 497.488281 L 152.976562 497.488281 Z M 152.976562 437.488281 " clip-rule="nonzero"/></clipPath><clipPath id="9f04accedc"><path d="M 1 0.488281 L 84.226562 0.488281 L 84.226562 60.488281 L 1 60.488281 Z M 1 0.488281 " clip-rule="nonzero"/></clipPath><clipPath id="94539c343d"><rect x="0" width="85" y="0" height="61"/></clipPath><clipPath id="7db3177c49"><path d="M 109.425781 360.808594 L 179.925781 360.808594 L 179.925781 411.808594 L 109.425781 411.808594 Z M 109.425781 360.808594 " clip-rule="nonzero"/></clipPath><clipPath id="e559c6179e"><path d="M 78.613281 377.1875 L 126.613281 377.1875 L 126.613281 412.4375 L 78.613281 412.4375 Z M 78.613281 377.1875 " clip-rule="nonzero"/></clipPath><clipPath id="3fe1000859"><path d="M 78.613281 437.488281 L 126.613281 437.488281 L 126.613281 472.738281 L 78.613281 472.738281 Z M 78.613281 437.488281 " clip-rule="nonzero"/></clipPath><clipPath id="d79e5437b1"><path d="M 0.613281 0.488281 L 48.613281 0.488281 L 48.613281 35.363281 L 0.613281 35.363281 Z M 0.613281 0.488281 " clip-rule="nonzero"/></clipPath><clipPath id="5a0c6c0259"><rect x="0" width="49" y="0" height="36"/></clipPath><clipPath id="afd1658b04"><path d="M 1233.382812 376 L 1313 376 L 1313 471 L 1233.382812 471 Z M 1233.382812 376 " clip-rule="nonzero"/></clipPath><clipPath id="261c3266f9"><path d="M 641.851562 410.980469 L 677.289062 410.980469 L 677.289062 438.570312 L 641.851562 438.570312 Z M 641.851562 410.980469 " clip-rule="nonzero"/></clipPath><clipPath id="b91cf044f4"><path d="M 0.851562 0.980469 L 36.289062 0.980469 L 36.289062 28.570312 L 0.851562 28.570312 Z M 0.851562 0.980469 " clip-rule="nonzero"/></clipPath><clipPath id="a02563b043"><rect x="0" width="37" y="0" height="29"/></clipPath><clipPath id="298dad9b02"><path d="M 1159 403 L 1194 403 L 1194 444 L 1159 444 Z M 1159 403 " clip-rule="nonzero"/></clipPath><clipPath id="2cbf9184e2"><path d="M 1159.34375 403.84375 L 1200.484375 412.679688 L 1193.964844 443.03125 L 1152.824219 434.195312 Z M 1159.34375 403.84375 " clip-rule="nonzero"/></clipPath><clipPath id="685c92cff7"><path d="M 1190.132812 410.453125 L 1159.34375 403.84375 L 1163.082031 436.398438 L 1193.871094 443.007812 Z M 1190.132812 410.453125 " clip-rule="nonzero"/></clipPath><clipPath id="69647c82ec"><path d="M 0.199219 0.679688 L 35 0.679688 L 35 40.039062 L 0.199219 40.039062 Z M 0.199219 0.679688 " clip-rule="nonzero"/></clipPath><clipPath id="f2c0190370"><path d="M 0.34375 0.84375 L 41.484375 9.679688 L 34.964844 40.03125 L -6.175781 31.195312 Z M 0.34375 0.84375 " clip-rule="nonzero"/></clipPath><clipPath id="73433e3a96"><path d="M 31.132812 7.453125 L 0.34375 0.84375 L 4.082031 33.398438 L 34.871094 40.007812 Z M 31.132812 7.453125 " clip-rule="nonzero"/></clipPath><clipPath id="72889d0fa4"><rect x="0" width="35" y="0" height="41"/></clipPath><clipPath id="0bdd18c8a2"><path d="M 1152 408 L 1173 408 L 1173 438 L 1152 438 Z M 1152 408 " clip-rule="nonzero"/></clipPath><clipPath id="69cd7e04b9"><path d="M 1170.800781 408.773438 L 1173.214844 435.589844 L 1154.757812 437.25 L 1152.347656 410.433594 Z M 1170.800781 408.773438 " clip-rule="nonzero"/></clipPath><clipPath id="fc9e7a6420"><path d="M 1172.648438 429.300781 L 1170.800781 408.773438 L 1152.910156 416.667969 L 1154.753906 437.195312 Z M 1172.648438 429.300781 " clip-rule="nonzero"/></clipPath><clipPath id="b1231e6e7d"><path d="M 0.71875 0.71875 L 20.878906 0.71875 L 20.878906 29.28125 L 0.71875 29.28125 Z M 0.71875 0.71875 " clip-rule="nonzero"/></clipPath><clipPath id="d46c16e7da"><path d="M 18.800781 0.773438 L 21.214844 27.589844 L 2.757812 29.25 L 0.347656 2.433594 Z M 18.800781 0.773438 " clip-rule="nonzero"/></clipPath><clipPath id="d29d76636b"><path d="M 20.648438 21.300781 L 18.800781 0.773438 L 0.910156 8.667969 L 2.753906 29.195312 Z M 20.648438 21.300781 " clip-rule="nonzero"/></clipPath><clipPath id="b82f0729a2"><rect x="0" width="21" y="0" height="30"/></clipPath><clipPath id="090d158d62"><path d="M 265 406 L 304 406 L 304 434 L 265 434 Z M 265 406 " clip-rule="nonzero"/></clipPath><clipPath id="836c844620"><path d="M 265.128906 433.023438 L 279.742188 397.246094 L 303.226562 406.839844 L 288.613281 442.617188 Z M 265.128906 433.023438 " clip-rule="nonzero"/></clipPath><clipPath id="49af071077"><path d="M 276.148438 406.046875 L 265.128906 433.023438 L 292.203125 433.824219 L 303.222656 406.847656 Z M 276.148438 406.046875 " clip-rule="nonzero"/></clipPath><clipPath id="e0ded32df1"><path d="M 0 0 L 38.359375 0 L 38.359375 27.921875 L 0 27.921875 Z M 0 0 " clip-rule="nonzero"/></clipPath><clipPath id="f7d1022ddf"><path d="M 0.128906 27.023438 L 14.742188 -8.753906 L 38.226562 0.839844 L 23.613281 36.617188 Z M 0.128906 27.023438 " clip-rule="nonzero"/></clipPath><clipPath id="626c83b47c"><path d="M 11.148438 0.046875 L 0.128906 27.023438 L 27.203125 27.824219 L 38.222656 0.847656 Z M 11.148438 0.046875 " clip-rule="nonzero"/></clipPath><clipPath id="bf248e0d26"><rect x="0" width="39" y="0" height="28"/></clipPath><clipPath id="babf66de23"><path d="M 109.425781 438.574219 L 179.925781 438.574219 L 179.925781 489.574219 L 109.425781 489.574219 Z M 109.425781 438.574219 " clip-rule="nonzero"/></clipPath><clipPath id="99470130bc"><path d="M 0.441406 0.574219 L 70.925781 0.574219 L 70.925781 51.574219 L 0.441406 51.574219 Z M 0.441406 0.574219 " clip-rule="nonzero"/></clipPath><clipPath id="1f11cdf970"><rect x="0" width="71" y="0" height="52"/></clipPath></defs><g transform="matrix(1, 0, 0, 1, 168, 34)"><g clip-path="url(#f4490780ef)"><g fill="#ffffff" fill-opacity="1"><g transform="translate(9.689349, 530.036237)"><g><path d="M 391.515625 -5.46875 L 395.890625 -5.46875 L 395.890625 0 L 272.859375 0 L 272.859375 -5.46875 L 277.78125 -5.46875 C 285.4375 -5.46875 291.175781 -7.925781 295 -12.84375 C 298.832031 -17.769531 300.75 -22.421875 300.75 -26.796875 C 300.75 -31.171875 300.019531 -35.546875 298.5625 -39.921875 L 263.5625 -132.875 L 115.921875 -132.875 L 79.28125 -39.375 C 77.820312 -35 77.09375 -30.710938 77.09375 -26.515625 C 77.09375 -22.328125 79.003906 -17.769531 82.828125 -12.84375 C 86.660156 -7.925781 92.40625 -5.46875 100.0625 -5.46875 L 104.984375 -5.46875 L 104.984375 0 L -4.921875 0 L -4.921875 -5.46875 L 0 -5.46875 C 9.113281 -5.46875 18.046875 -8.382812 26.796875 -14.21875 C 35.546875 -20.050781 42.65625 -28.617188 48.125 -39.921875 L 171.703125 -334.109375 C 185.191406 -363.628906 191.9375 -382.398438 191.9375 -390.421875 L 196.859375 -390.421875 L 343.390625 -39.921875 C 348.492188 -28.617188 355.421875 -20.050781 364.171875 -14.21875 C 372.921875 -8.382812 382.035156 -5.46875 391.515625 -5.46875 Z M 122.484375 -149.28125 L 257 -149.28125 L 191.390625 -324.8125 Z M 122.484375 -149.28125 "/></g></g></g><g fill="#ffffff" fill-opacity="1"><g transform="translate(399.02373, 530.036237)"><g><path d="M 39.921875 -5.46875 C 49.398438 -5.46875 57.507812 -8.835938 64.25 -15.578125 C 70.988281 -22.328125 74.539062 -30.441406 74.90625 -39.921875 L 74.90625 -343.390625 C 74.539062 -352.867188 70.988281 -360.890625 64.25 -367.453125 C 57.507812 -374.015625 49.398438 -377.296875 39.921875 -377.296875 L 32.8125 -377.296875 L 32.8125 -382.765625 L 152.5625 -382.765625 L 152.5625 -377.296875 L 145.453125 -377.296875 C 135.972656 -377.296875 127.859375 -374.015625 121.109375 -367.453125 C 114.367188 -360.890625 110.816406 -352.867188 110.453125 -343.390625 L 110.453125 -39.921875 C 110.453125 -30.441406 113.914062 -22.328125 120.84375 -15.578125 C 127.769531 -8.835938 135.972656 -5.46875 145.453125 -5.46875 L 152.5625 -5.46875 L 152.5625 0 L 32.8125 0 L 32.8125 -5.46875 Z M 39.921875 -5.46875 "/></g></g></g><g fill="#ffffff" fill-opacity="1"><g transform="translate(583.848172, 530.036237)"><g><path d="M 492.125 -5.46875 L 500.875 -5.46875 L 500.875 0 L 382.21875 0 L 382.21875 -4.921875 L 390.421875 -4.921875 C 396.617188 -4.921875 401.90625 -7.378906 406.28125 -12.296875 C 410.65625 -17.222656 412.476562 -22.601562 411.75 -28.4375 L 387.140625 -303.484375 L 272.3125 -48.125 C 262.101562 -25.882812 255.90625 -7.289062 253.71875 7.65625 L 248.25 7.65625 L 108.265625 -295.828125 L 84.75 -28.4375 C 84.019531 -22.601562 85.84375 -17.222656 90.21875 -12.296875 C 94.59375 -7.378906 99.695312 -4.921875 105.53125 -4.921875 L 114.28125 -4.921875 L 114.28125 0 L 8.203125 0 L 8.203125 -5.46875 L 16.953125 -5.46875 C 27.160156 -5.46875 36 -8.566406 43.46875 -14.765625 C 50.945312 -20.960938 55.414062 -29.347656 56.875 -39.921875 L 97.875 -390.421875 L 103.34375 -390.421875 L 255.90625 -60.703125 L 405.1875 -390.421875 L 410.109375 -390.421875 L 452.21875 -39.921875 C 454.039062 -25.335938 461.332031 -15.128906 474.09375 -9.296875 C 479.550781 -6.742188 485.5625 -5.46875 492.125 -5.46875 Z M 492.125 -5.46875 "/></g></g></g></g></g><path stroke-linecap="butt" transform="matrix(0.75, -0.000000000000000093, 0.000000000000000093, 0.75, 65.021465, 416.488511)" fill="none" stroke-linejoin="miter" d="M -0.0025788 10.999694 L 1582.643334 10.999694 " stroke="#8fa8e6" stroke-width="22" stroke-opacity="1" stroke-miterlimit="4"/><path stroke-linecap="round" transform="matrix(0.75, -0.000000000000000093, 0.000000000000000093, 0.75, 65.021465, 416.488511)" fill-opacity="1" fill="#8fa8e6" fill-rule="nonzero" stroke-linejoin="round" d="M 1588.143334 -22.000308 L 1632.143337 10.999694 L 1588.143334 43.999696 Z M 1588.143334 -22.000308 " stroke="#8fa8e6" stroke-width="22" stroke-opacity="1" stroke-miterlimit="4"/><g clip-path="url(#7264395a4c)"><path fill="#8fa8e6" d="M 171.183594 351.734375 L 162.117188 361.492188 L 153.054688 371.253906 L 162.117188 379.671875 L 197.171875 412.21875 L 162.117188 444.765625 L 153.054688 453.183594 L 171.183594 472.707031 L 236.324219 412.21875 Z M 171.183594 351.734375 " fill-opacity="1" fill-rule="nonzero"/></g><g clip-path="url(#8125bf8677)"><g transform="matrix(1, 0, 0, 1, 152, 437)"><g clip-path="url(#94539c343d)"><g clip-path="url(#9f04accedc)"><path fill="#8fa8e6" d="M 19.183594 60.816406 L 10.117188 51.054688 L 1.054688 41.292969 L 10.117188 32.878906 L 45.171875 0.332031 L 10.117188 -32.214844 L 1.054688 -40.632812 L 19.183594 -60.15625 L 84.324219 0.332031 Z M 19.183594 60.816406 " fill-opacity="1" fill-rule="nonzero"/></g></g></g></g><g clip-path="url(#7db3177c49)"><path fill="#8fa8e6" d="M 124.871094 360.808594 L 117.183594 369.089844 L 109.496094 377.367188 L 117.183594 384.507812 L 146.914062 412.113281 L 117.183594 439.71875 L 109.492188 446.859375 L 124.871094 463.417969 L 180.125 412.113281 Z M 124.871094 360.808594 " fill-opacity="1" fill-rule="nonzero"/></g><g clip-path="url(#e559c6179e)"><path fill="#8fa8e6" d="M 89.136719 377.1875 L 83.894531 382.828125 L 78.65625 388.472656 L 83.894531 393.335938 L 104.160156 412.152344 L 83.894531 430.972656 L 78.65625 435.835938 L 89.136719 447.125 L 126.792969 412.152344 Z M 89.136719 377.1875 " fill-opacity="1" fill-rule="nonzero"/></g><g clip-path="url(#3fe1000859)"><g transform="matrix(1, 0, 0, 1, 78, 437)"><g clip-path="url(#5a0c6c0259)"><g clip-path="url(#d79e5437b1)"><path fill="#8fa8e6" d="M 11.136719 35.363281 L 5.894531 29.71875 L 0.65625 24.078125 L 5.894531 19.210938 L 26.160156 0.394531 L 5.894531 -18.421875 L 0.65625 -23.289062 L 11.136719 -34.574219 L 48.792969 0.394531 Z M 11.136719 35.363281 " fill-opacity="1" fill-rule="nonzero"/></g></g></g></g><g clip-path="url(#afd1658b04)"><path fill="#8fa8e6" d="M 1234.03125 467.324219 L 1249.753906 423.382812 C 1249.925781 422.894531 1249.925781 422.359375 1249.753906 421.871094 L 1234.128906 379.539062 C 1233.429688 377.640625 1235.429688 375.882812 1237.128906 376.90625 L 1311.867188 421.53125 C 1313.265625 422.359375 1313.265625 424.433594 1311.867188 425.261719 L 1237.054688 469.957031 C 1235.378906 470.957031 1233.378906 469.226562 1234.03125 467.324219 " fill-opacity="1" fill-rule="nonzero"/></g><g clip-path="url(#261c3266f9)"><g transform="matrix(1, 0, 0, 1, 641, 410)"><g clip-path="url(#a02563b043)"><g clip-path="url(#b91cf044f4)"><path fill="#ffffff" d="M 0.851562 28.570312 L 0.851562 0.980469 L 36.308594 0.980469 L 36.308594 28.570312 Z M 0.851562 28.570312 " fill-opacity="1" fill-rule="nonzero"/></g></g></g></g><g clip-path="url(#298dad9b02)"><g clip-path="url(#2cbf9184e2)"><g clip-path="url(#685c92cff7)"><g transform="matrix(1, 0, 0, 1, 1159, 403)"><g clip-path="url(#72889d0fa4)"><g clip-path="url(#69647c82ec)"><g clip-path="url(#f2c0190370)"><g clip-path="url(#73433e3a96)"><path fill="#ffffff" d="M 0.34375 0.84375 L 41.367188 9.652344 L 34.847656 40.003906 L -6.175781 31.195312 Z M 0.34375 0.84375 " fill-opacity="1" fill-rule="nonzero"/></g></g></g></g></g></g></g></g><g clip-path="url(#0bdd18c8a2)"><g clip-path="url(#69cd7e04b9)"><g clip-path="url(#fc9e7a6420)"><g transform="matrix(1, 0, 0, 1, 1152, 408)"><g clip-path="url(#b82f0729a2)"><g clip-path="url(#b1231e6e7d)"><g clip-path="url(#d46c16e7da)"><g clip-path="url(#d29d76636b)"><path fill="#ffffff" d="M 18.800781 0.773438 L 21.207031 27.519531 L 2.753906 29.175781 L 0.347656 2.433594 Z M 18.800781 0.773438 " fill-opacity="1" fill-rule="nonzero"/></g></g></g></g></g></g></g></g><path stroke-linecap="butt" transform="matrix(0.75, 0, 0, 0.75, 814.270453, 408.963599)" fill="none" stroke-linejoin="miter" d="M -0.00122934 5.001659 L 51.035232 5.001659 " stroke="#ffffff" stroke-width="10" stroke-opacity="1" stroke-miterlimit="4"/><path stroke-linecap="butt" transform="matrix(0.75, 0, 0, 0.75, 814.270453, 432.963598)" fill="none" stroke-linejoin="miter" d="M -0.00122934 5.001661 L 51.035232 5.001661 " stroke="#ffffff" stroke-width="10" stroke-opacity="1" stroke-miterlimit="4"/><path stroke-linecap="butt" transform="matrix(0.75, 0, 0, 0.75, 932.580007, 432.963598)" fill="none" stroke-linejoin="miter" d="M -0.00250974 5.001661 L 66.211035 5.001661 " stroke="#ffffff" stroke-width="10" stroke-opacity="1" stroke-miterlimit="4"/><path stroke-linecap="butt" transform="matrix(0.75, 0, 0, 0.75, 922.953248, 408.963599)" fill="none" stroke-linejoin="miter" d="M -0.00016372 5.001659 L 66.208173 5.001659 " stroke="#ffffff" stroke-width="10" stroke-opacity="1" stroke-miterlimit="4"/><path stroke-linecap="butt" transform="matrix(0.75, 0, 0, 0.75, 1023.084339, 432.963598)" fill="none" stroke-linejoin="miter" d="M 0.00213166 5.001661 L 66.210468 5.001661 " stroke="#ffffff" stroke-width="10" stroke-opacity="1" stroke-miterlimit="4"/><path stroke-linecap="butt" transform="matrix(0.75, 0, 0, 0.75, 1032.413618, 408.963599)" fill="none" stroke-linejoin="miter" d="M 0.00059229 5.001659 L 66.208929 5.001659 " stroke="#ffffff" stroke-width="10" stroke-opacity="1" stroke-miterlimit="4"/><path stroke-linecap="butt" transform="matrix(0.75, 0, 0, 0.75, 300.228272, 432.963598)" fill="none" stroke-linejoin="miter" d="M -0.00227922 5.001661 L 256.50815 5.001661 " stroke="#ffffff" stroke-width="10" stroke-opacity="1" stroke-miterlimit="4"/><path stroke-linecap="butt" transform="matrix(0.75, -0.000000000000000372, 0.000000000000000372, 0.75, 300.228272, 408.963599)" fill="none" stroke-linejoin="miter" d="M -0.00227922 5.001659 L 241.07065 5.001659 " stroke="#ffffff" stroke-width="10" stroke-opacity="1" stroke-miterlimit="4"/><g clip-path="url(#090d158d62)"><g clip-path="url(#836c844620)"><g clip-path="url(#49af071077)"><g transform="matrix(1, 0, 0, 1, 265, 406)"><g clip-path="url(#bf248e0d26)"><g clip-path="url(#e0ded32df1)"><g clip-path="url(#f7d1022ddf)"><g clip-path="url(#626c83b47c)"><path fill="#ffffff" d="M 0.128906 27.023438 L 14.742188 -8.753906 L 38.226562 0.839844 L 23.613281 36.617188 Z M 0.128906 27.023438 " fill-opacity="1" fill-rule="nonzero"/></g></g></g></g></g></g></g></g><g clip-path="url(#babf66de23)"><g transform="matrix(1, 0, 0, 1, 109, 438)"><g clip-path="url(#1f11cdf970)"><g clip-path="url(#99470130bc)"><path fill="#8fa8e6" d="M 15.871094 51.75 L 8.183594 43.46875 L 0.496094 35.191406 L 8.183594 28.050781 L 37.914062 0.445312 L 8.183594 -27.164062 L 0.492188 -34.300781 L 15.871094 -50.859375 L 71.125 0.445312 Z M 15.871094 51.75 " fill-opacity="1" fill-rule="nonzero"/></g></g></g></g><path stroke-linecap="butt" transform="matrix(0.274009, -0.698154, 0.698154, 0.274009, 287.401017, 440.777086)" fill="none" stroke-linejoin="miter" d="M 0.000879596 1.999011 L 47.526344 2.000488 " stroke="#ffffff" stroke-width="4" stroke-opacity="1" stroke-miterlimit="4"/></svg>